{
   "accessors" : 
   [
      {
         "bufferView" : 0,
         "byteOffset" : 0,
         "componentType" : 5126,
         "count" : 7219,
         "max" : [ 330.0, 230.0, 0.0 ],
         "min" : [ -20.0, -50.0, 0.0 ],
         "type" : "VEC3"
      },
      {
         "bufferView" : 1,
         "byteOffset" : 0,
         "componentType" : 5126,
         "count" : 7219,
         "normalized" : false,
         "type" : "VEC2"
      },
      {
         "bufferView" : 2,
         "byteOffset" : 0,
         "componentType" : 5125,
         "count" : 39822,
         "type" : "SCALAR"
      },
      {
         "bufferView" : 4,
         "byteOffset" : 0,
         "componentType" : 5126,
         "count" : 11032,
         "max" : [ 343.25198364257812, 80.393470764160156, 140.49777221679688 ],
         "min" : [ -363.12283325195312, 38.008464813232422, -1.7028930187225342 ],
         "type" : "VEC3"
      },
      {
         "bufferView" : 5,
         "byteOffset" : 0,
         "componentType" : 5126,
         "count" : 11032,
         "normalized" : false,
         "type" : "VEC2"
      },
      {
         "bufferView" : 6,
         "byteOffset" : 0,
         "componentType" : 5125,
         "count" : 18912,
         "type" : "SCALAR"
      }
   ],
   "asset" : 
   {
      "generator" : "VTK",
      "version" : "2.0"
   },
   "bufferViews" : 
   [
      {
         "buffer" : 0,
         "byteLength" : 86628,
         "byteOffset" : 0
      },
      {
         "buffer" : 1,
         "byteLength" : 57752,
         "byteOffset" : 0
      },
      {
         "buffer" : 2,
         "byteLength" : 159288,
         "byteOffset" : 0
      },
      {
         "buffer" : 3,
         "byteLength" : 334,
         "byteOffset" : 0
      },
      {
         "buffer" : 4,
         "byteLength" : 132384,
         "byteOffset" : 0
      },
      {
         "buffer" : 5,
         "byteLength" : 88256,
         "byteOffset" : 0
      },
      {
         "buffer" : 6,
         "byteLength" : 75648,
         "byteOffset" : 0
      },
      {
         "buffer" : 7,
         "byteLength" : 334,
         "byteOffset" : 0
      }
   ],
   "buffers" : 
   [
      {
         "byteLength" : 86628,
         "uri" : "buffer1883566.bin"
      },
      {
         "byteLength" : 57752,
         "uri" : "buffer11913781.bin"
      },
      {
         "byteLength" : 159288,
         "uri" : "buffer11913782.bin"
      },
      {
         "byteLength" : 334,
         "uri" : "buffer11914303.bin"
      },
      {
         "byteLength" : 132384,
         "uri" : "buffer11838248.bin"
      },
      {
         "byteLength" : 88256,
         "uri" : "buffer11914698.bin"
      },
      {
         "byteLength" : 75648,
         "uri" : "buffer11914699.bin"
      },
      {
         "byteLength" : 334,
         "uri" : "buffer11915190.bin"
      }
   ],
   "cameras" : 
   [
      {
         "perspective" : 
         {
            "aspectRatio" : 1.2672521957340026,
            "yfov" : 0.43950040239989224,
            "zfar" : 1541.953933900428,
            "znear" : 215.58670301200647
         },
         "type" : "perspective"
      }
   ],
   "images" : 
   [
      {
         "bufferView" : 3,
         "mimeType" : "image/png"
      },
      {
         "bufferView" : 7,
         "mimeType" : "image/png"
      }
   ],
   "materials" : 
   [
      {
         "pbrMetallicRoughness" : 
         {
            "baseColorFactor" : [ 1.0, 1.0, 1.0, 1.0 ],
            "baseColorTexture" : 
            {
               "index" : 0,
               "texCoord" : 0
            },
            "metallicFactor" : 0.0,
            "roughnessFactor" : 1.0
         }
      },
      {
         "pbrMetallicRoughness" : 
         {
            "baseColorFactor" : [ 1.0, 1.0, 1.0, 1.0 ],
            "baseColorTexture" : 
            {
               "index" : 1,
               "texCoord" : 0
            },
            "metallicFactor" : 0.0,
            "roughnessFactor" : 1.0
         }
      }
   ],
   "meshes" : 
   [
      {
         "name" : "mesh0",
         "primitives" : 
         [
            {
               "attributes" : 
               {
                  "POSITION" : 0,
                  "TEXCOORD_0" : 1
               },
               "indices" : 2,
               "material" : 0,
               "mode" : 4
            }
         ]
      },
      {
         "name" : "mesh1",
         "primitives" : 
         [
            {
               "attributes" : 
               {
                  "POSITION" : 3,
                  "TEXCOORD_0" : 4
               },
               "indices" : 5,
               "material" : 1,
               "mode" : 1
            }
         ]
      }
   ],
   "nodes" : 
   [
      {
         "mesh" : 0,
         "name" : "mesh0"
      },
      {
         "mesh" : 1,
         "name" : "mesh1"
      },
      {
         "camera" : 0,
         "matrix" : 
         [
            0.90639482389396764,
            0.0088157330978675258,
            -0.42233956251832561,
            0.0,
            -0.39884147352881816,
            0.34728505435921925,
            -0.84871583584382071,
            0.0,
            0.13919016564249292,
            0.93771817401000679,
            0.31829345566592171,
            0.0,
            -63.832232979182137,
            -96.114291477130791,
            -751.83231657729561,
            1.0
         ],
         "name" : "Camera Node"
      },
      {
         "children" : [ 0, 1, 2 ],
         "name" : "Renderer Node"
      }
   ],
   "samplers" : 
   [
      {
         "magFilter" : 9728,
         "minFilter" : 9728,
         "wrapS" : 33071,
         "wrapT" : 33071
      },
      {
         "magFilter" : 9728,
         "minFilter" : 9728,
         "wrapS" : 33071,
         "wrapT" : 33071
      }
   ],
   "scene" : 0,
   "scenes" : 
   [
      {
         "name" : "Layer 0",
         "nodes" : [ 3 ]
      }
   ],
   "textures" : 
   [
      {
         "sampler" : 0,
         "source" : 0
      },
      {
         "sampler" : 1,
         "source" : 1
      }
   ]
}